{
  "accessors": [
    {
      "bufferView": 1,
      "componentType": 5126,
      "count": 65532,
      "max": [
        13.251547813415527,
        17.12211036682129,
        19.52242660522461
      ],
      "min": [
        0.0,
        0.0,
        0.0
      ],
      "type": "VEC3"
    },
    {
      "bufferView": 1,
      "byteOffset": 786384,
      "componentType": 5126,
      "count": 65532,
      "max": [
        0.9999522566795349,
        0.9999898672103882,
        0.9999971389770508
      ],
      "min": [
        -0.9999932646751404,
        -0.9999992251396179,
        -0.9999542236328125
      ],
      "type": "VEC3"
    },
    {
      "bufferView": 0,
      "componentType": 5125,
      "count": 363945,
      "type": "SCALAR"
    },
    {
      "bufferView": 1,
      "byteOffset": 1572768,
      "componentType": 5126,
      "count": 17280,
      "max": [
        13.210384368896484,
        17.072467803955078,
        19.487728118896484
      ],
      "min": [
        0.010207653045654297,
        0.0012087821960449219,
        0.0018687248229980469
      ],
      "type": "VEC3"
    },
    {
      "bufferView": 1,
      "byteOffset": 1780128,
      "componentType": 5126,
      "count": 17280,
      "max": [
        0.9999522566795349,
        0.9999547600746155,
        0.9999784827232361
      ],
      "min": [
        -0.9999721050262451,
        -0.9997254610061646,
        -0.9997611045837402
      ],
      "type": "VEC3"
    },
    {
      "bufferView": 0,
      "byteOffset": 1455780,
      "componentType": 5125,
      "count": 46191,
      "type": "SCALAR"
    }
  ],
  "asset": {
    "extras": {
      "author": "Ruslan Gadzhiev (https://sketchfab.com/ruslangadzhiev)",
      "license": "CC-BY-4.0 (http://creativecommons.org/licenses/by/4.0/)",
      "source": "https://sketchfab.com/3d-models/human-male-skull-f1eaaef50e5845c796d6834fd1b702e5",
      "title": "Human Male Skull"
    },
    "generator": "Sketchfab-13.85.0",
    "version": "2.0"
  },
  "bufferViews": [
    {
      "buffer": 0,
      "byteLength": 1640544,
      "name": "floatBufferViews",
      "target": 34963
    },
    {
      "buffer": 0,
      "byteLength": 1987488,
      "byteOffset": 1640544,
      "byteStride": 12,
      "name": "floatBufferViews",
      "target": 34962
    }
  ],
  "buffers": [
    {
      "byteLength": 3628032,
      "uri": "scene.bin"
    }
  ],
  "extensionsRequired": [
    "KHR_materials_pbrSpecularGlossiness"
  ],
  "extensionsUsed": [
    "KHR_materials_pbrSpecularGlossiness"
  ],
  "materials": [
    {
      "doubleSided": true,
      "extensions": {
        "KHR_materials_pbrSpecularGlossiness": {
          "diffuseFactor": [
            0.27592356247286554,
            0.27592356247286554,
            0.27592356247286554,
            1.0
          ],
          "glossinessFactor": 0.26391006097560976,
          "specularFactor": [
            0.4773246951219512,
            0.4773246951219512,
            0.4773246951219512
          ]
        }
      },
      "name": "material_0"
    }
  ],
  "meshes": [
    {
      "name": "Object_0",
      "primitives": [
        {
          "attributes": {
            "NORMAL": 1,
            "POSITION": 0
          },
          "indices": 2,
          "material": 0,
          "mode": 4
        }
      ]
    },
    {
      "name": "Object_1",
      "primitives": [
        {
          "attributes": {
            "NORMAL": 4,
            "POSITION": 3
          },
          "indices": 5,
          "material": 0,
          "mode": 4
        }
      ]
    }
  ],
  "nodes": [
    {
      "children": [
        1
      ],
      "matrix": [
        1.0,
        0.0,
        0.0,
        0.0,
        0.0,
        2.220446049250313e-16,
        -1.0,
        0.0,
        0.0,
        1.0,
        2.220446049250313e-16,
        0.0,
        0.0,
        0.0,
        0.0,
        1.0
      ],
      "name": "Sketchfab_model"
    },
    {
      "children": [
        2
      ],
      "matrix": [
        1.0,
        0.0,
        0.0,
        0.0,
        0.0,
        1.0,
        0.0,
        0.0,
        0.0,
        0.0,
        1.0,
        0.0,
        -6.625630855560303,
        -7.695426940917969,
        -6.934342861175537,
        1.0
      ],
      "name": "Merged_male_skull.OBJ.cleaner.gles"
    },
    {
      "children": [
        3,
        4
      ],
      "name": "Object_2"
    },
    {
      "mesh": 0,
      "name": "Object_3"
    },
    {
      "mesh": 1,
      "name": "Object_4"
    }
  ],
  "scene": 0,
  "scenes": [
    {
      "name": "Sketchfab_Scene",
      "nodes": [
        0
      ]
    }
  ]
}
